<svg xmlns="http://www.w3.org/2000/svg" width="47" height="39.061" viewBox="0 0 47 39.061">
  <g id="Сгруппировать_4" data-name="Сгруппировать 4" transform="translate(-21 -18.953)">
    <rect id="Прямоугольник_1" data-name="Прямоугольник 1" width="47" height="22" rx="7" transform="translate(21 36.014)" fill="#516eff"/>
    <path id="Контур_1" data-name="Контур 1" d="M2.881-3.549V-14.705H.85v-1.7H2.881v-1.319a4.377,4.377,0,0,1,1.1-3.2,4.174,4.174,0,0,1,3.125-1.129,5.8,5.8,0,0,1,1.509.2L8.5-20.075a6.313,6.313,0,0,0-1.188-.107,2.145,2.145,0,0,0-1.651.626,2.538,2.538,0,0,0-.582,1.794V-16.4H7.824v1.7H5.079V-3.549Zm13.58-10.883a6.587,6.587,0,0,0-1.081-.083,2.9,2.9,0,0,0-2.935,1.842v9.124h-2.2V-16.4h2.139l.036,1.485a3.422,3.422,0,0,1,3.065-1.723,2.245,2.245,0,0,1,.974.166Zm7.128,11.12a5.617,5.617,0,0,1-4.253-1.717A6.372,6.372,0,0,1,17.7-9.62v-.4a7.714,7.714,0,0,1,.731-3.416,5.7,5.7,0,0,1,2.043-2.352,5.138,5.138,0,0,1,2.845-.849,4.814,4.814,0,0,1,3.9,1.651,7.15,7.15,0,0,1,1.39,4.729v.915H19.894a4.569,4.569,0,0,0,1.111,3.071,3.492,3.492,0,0,0,2.7,1.17,3.828,3.828,0,0,0,1.972-.475A4.955,4.955,0,0,0,27.094-6.84l1.343,1.046A5.4,5.4,0,0,1,23.589-3.311Zm-.273-11.524a2.932,2.932,0,0,0-2.234.968,4.706,4.706,0,0,0-1.117,2.715h6.439v-.166a4.186,4.186,0,0,0-.9-2.6A2.76,2.76,0,0,0,23.316-14.836ZM36.48-3.311a5.617,5.617,0,0,1-4.253-1.717,6.372,6.372,0,0,1-1.64-4.592v-.4a7.714,7.714,0,0,1,.731-3.416,5.7,5.7,0,0,1,2.043-2.352,5.138,5.138,0,0,1,2.845-.849,4.814,4.814,0,0,1,3.9,1.651,7.15,7.15,0,0,1,1.39,4.729v.915H32.785A4.569,4.569,0,0,0,33.9-6.276a3.492,3.492,0,0,0,2.7,1.17,3.828,3.828,0,0,0,1.972-.475A4.955,4.955,0,0,0,39.985-6.84l1.343,1.046A5.4,5.4,0,0,1,36.48-3.311Zm-.273-11.524a2.932,2.932,0,0,0-2.234.968,4.706,4.706,0,0,0-1.117,2.715H39.3v-.166a4.186,4.186,0,0,0-.9-2.6A2.76,2.76,0,0,0,36.207-14.836Z" transform="translate(22.541 41)" fill="#516eff"/>
    <path id="Контур_2" data-name="Контур 2" d="M11.332-10.577H4.352v5.708H12.46v1.737H2.228V-19.238H12.349V-17.5h-8v5.188h6.98Zm16.15,7.444H25.346L17.238-15.543V-3.132H15.1V-19.238h2.135l8.13,12.466V-19.238h2.113ZM36-10.311a9.987,9.987,0,0,1-3.977-1.93,3.688,3.688,0,0,1-1.244-2.826A3.9,3.9,0,0,1,32.3-18.215a6.045,6.045,0,0,1,3.954-1.244,6.6,6.6,0,0,1,2.959.642,4.865,4.865,0,0,1,2.013,1.77,4.526,4.526,0,0,1,.713,2.467H39.8a2.945,2.945,0,0,0-.929-2.3,3.778,3.778,0,0,0-2.622-.838,3.868,3.868,0,0,0-2.45.693,2.31,2.31,0,0,0-.879,1.923,2.079,2.079,0,0,0,.835,1.668A8.191,8.191,0,0,0,36.6-12.193a13.19,13.19,0,0,1,3.141,1.245A4.767,4.767,0,0,1,41.424-9.36a4.051,4.051,0,0,1,.548,2.135,3.763,3.763,0,0,1-1.526,3.136,6.508,6.508,0,0,1-4.082,1.178,7.57,7.57,0,0,1-3.1-.636,5.212,5.212,0,0,1-2.218-1.742,4.252,4.252,0,0,1-.78-2.511H32.4a2.774,2.774,0,0,0,1.078,2.306,4.541,4.541,0,0,0,2.881.846,4.174,4.174,0,0,0,2.577-.686,2.228,2.228,0,0,0,.9-1.869,2.187,2.187,0,0,0-.83-1.831A9.565,9.565,0,0,0,36-10.311Z" transform="translate(22.319 58.203)" fill="#fff"/>
  </g>
</svg>
